<?xml version="1.0" standalone="no"?> <!DOCTYPE svg PUBLIC "-//W3C//DTD SVG 1.0//EN" "http://www.w3.org/TR/2001/REC-SVG-20010904/DTD/svg10.dtd" > <svg xmlns="http://www.w3.org/2000/svg" width="100%" height="100%">
<defs >
<font id="myriadproboldsemiext" horiz-adv-x="477" ><font-face
    font-family="MyriadPro-BoldSemiExt"
    units-per-em="1000"
    panose-1="2 11 7 5 3 4 3 2 2 4"
    ascent="750"
    descent="-250"
    alphabetic="0" />
<missing-glyph horiz-adv-x="500" d="M0 0V700H500V0H0ZM250 395L420 650H80L250 395ZM280 350L450 95V605L280 350ZM80 50H420L250 305L80 50ZM50 605V95L220 350L50 605Z" />
<glyph unicode=" " glyph-name="space" horiz-adv-x="216" />
<glyph unicode="!" glyph-name="exclam" horiz-adv-x="278" d="M196 221H81L57 674H220L196 221ZM139 -12H138Q96 -12 71 14T45 82T71 149T139 176T206 150T233 82Q233 41 207 15T139 -12Z" />
<glyph unicode="&quot;" glyph-name="quotedbl" horiz-adv-x="420" d="M36 695H181L157 420H60L36 695ZM238 695H383L359 420H262L238 695Z" />
<glyph unicode="#" glyph-name="numbersign" horiz-adv-x="591" d="M241 271H338L354 383H257L241 271ZM198 0H103L129 173H44V271H146L163 383H75V481H179L205 650H298L272 481H370L396 650H491L465 481H548V383H449L433 271H518V173H415L390 0H295L321 173H223L198 0Z" />
<glyph unicode="$" glyph-name="dollar" horiz-adv-x="598" d="M349 -88H246V5Q129 10 55 54L88 175Q180 126 276 126Q322 126 350 141T379 187Q379 214 352 232T263 268Q167 294 115 337T62 454Q62 524 111 573T248 637V730H351V643Q438 640 511 608L479 490Q394
528 316 528Q268 528 247 512T226 473T257 432T359 391Q457 362 500 318T543 201Q543 131 493 79T349 12V-88Z" />
<glyph unicode="%" glyph-name="percent" horiz-adv-x="955" d="M228 662H229Q317 662 368 610T420 470Q420 372 362 316T222 260Q141 260 86 311T30 457Q30 547 84 604T228 662ZM226 574H225Q189 574 171 542T152 460Q151 411 171 380T226 348T279 378T298 462Q298
512 280 543T226 574ZM329 -12H243L623 660H709L329 -12ZM732 391H733Q821 391 872 339T924 199Q924 103 866 47T726 -10Q646 -10 590 42T534 186Q534 276 588 333T732 391ZM730 303H729Q693 303 675 271T656 190Q655 141 675 110T730 78T783 107T802 191Q802 241
784 272T730 303Z" />
<glyph unicode="&amp;" glyph-name="ampersand" horiz-adv-x="727" d="M721 0H533Q505 26 485 50Q404 -12 286 -12Q162 -12 99 45T35 179Q35 309 171 376V380Q149 402 134 436T119 504Q119 575 175 630T333 686Q417 686 472 642T527 526Q527 416 388 356L387 352L504
231Q553 301 571 398H715Q682 232 594 136L721 0ZM307 103H308Q367 103 407 137Q356 184 245 301Q187 264 187 208Q187 164 219 134T307 103ZM327 588H326Q297 588 280 568T262 522Q262 476 312 426Q354 453 372 474T391 522T374 568T327 588Z" />
<glyph unicode="&apos;" glyph-name="quotesingle" horiz-adv-x="217" d="M36 695H181L157 420H60L36 695Z" />
<glyph unicode="(" glyph-name="parenleft" horiz-adv-x="333" d="M182 691H292Q193 524 193 287Q193 52 292 -115H182Q69 57 69 287Q69 519 182 691Z" />
<glyph unicode=")" glyph-name="parenright" horiz-adv-x="333" d="M151 -115H41Q140 52 140 288T41 691H151Q264 522 264 288Q264 57 151 -115Z" />
<glyph unicode="*" glyph-name="asterisk" d="M298 686L387 635L277 504V502L443 536V432L276 460V457L387 331L297 278L238 435H236L178 278L89 331L199 458V460L35 432V536L197 502V504L89 635L180 686L236 529H238L298 686Z" />
<glyph unicode="+" glyph-name="plus" horiz-adv-x="596" d="M247 533H349V316H556V219H349V0H247V219H40V316H247V533Z" />
<glyph unicode="," glyph-name="comma" horiz-adv-x="269" d="M106 -108L-2 -117Q50 26 73 173L235 183Q181 14 106 -108Z" />
<glyph unicode="-" glyph-name="hyphen" horiz-adv-x="343" d="M30 310H313V206H30V310Z" />
<glyph unicode="." glyph-name="period" horiz-adv-x="269" d="M144 -12H143Q101 -12 76 14T50 82T76 149T144 176T211 150T238 82Q238 41 212 15T144 -12Z" />
<glyph unicode="/" glyph-name="slash" horiz-adv-x="348" d="M134 -40H29L236 686H342L134 -40Z" />
<glyph unicode="0" glyph-name="zero" horiz-adv-x="598" d="M298 -12H297Q170 -12 104 81T36 325Q36 474 104 568T301 662Q431 662 496 569T562 328Q562 230 535 156T448 35T298 -12ZM298 104H299Q349 104 376 160T403 326Q403 546 299 546Q251 546 223 490T195
326Q194 218 222 161T298 104Z" />
<glyph unicode="1" glyph-name="one" horiz-adv-x="598" d="M255 0V511H253L125 452L99 569L279 650H408V0H255Z" />
<glyph unicode="2" glyph-name="two" horiz-adv-x="598" d="M544 0H48V94L138 167Q268 275 319 331T371 438Q371 481 343 508T257 535Q183 535 104 475L55 586Q150 662 290 662Q401 662 465 605T530 453Q530 380 484 316T351 182L283 131V129H544V0Z" />
<glyph unicode="3" glyph-name="three" horiz-adv-x="598" d="M43 39L78 157Q163 113 248 113Q309 113 341 136T373 197Q373 240 334 263T239 287H162V401H237Q283 401 318 418T354 472Q354 501 328 519T252 538Q171 538 98 495L62 608Q98 631 158 646T286 662Q393
662 454 616T516 498Q516 387 389 346V344Q453 335 496 292T540 188Q540 98 463 43T258 -12Q123 -12 43 39Z" />
<glyph unicode="4" glyph-name="four" horiz-adv-x="598" d="M490 0H337V155H27V257L284 650H490V272H572V155H490V0ZM178 272H337V419Q337 457 341 545H337Q328 528 307 485T272 418L179 274L178 272Z" />
<glyph unicode="5" glyph-name="five" horiz-adv-x="598" d="M513 650V521H234L220 427Q246 430 270 430Q385 430 458 384Q544 329 544 215Q544 121 463 55T247 -12Q127 -12 47 28L77 146Q149 110 241 110Q295 110 337 134T379 206Q379 311 182 311Q135 311 81
304L125 650H513Z" />
<glyph unicode="6" glyph-name="six" horiz-adv-x="598" d="M491 659V538Q465 541 430 538Q324 532 267 491T196 389H198Q255 440 349 440Q441 440 504 383T568 224Q568 124 494 56T311 -12Q176 -12 105 70T33 276Q33 363 64 437T151 562Q258 656 431 660Q452
662 491 659ZM308 105H309Q352 105 379 135T406 213Q406 262 378 294T298 327Q263 327 236 310T196 265Q189 252 189 232Q192 179 222 142T308 105Z" />
<glyph unicode="7" glyph-name="seven" horiz-adv-x="598" d="M53 650H547V551L258 0H85L376 519V521H53V650Z" />
<glyph unicode="8" glyph-name="eight" horiz-adv-x="598" d="M302 662H303Q421 662 478 610T535 493Q535 447 510 409T437 349V347Q491 328 527 288T563 188Q563 98 491 43T295 -12Q168 -12 102 43T36 169Q36 281 158 330V332Q59 380 59 475Q59 558 128 610T302
662ZM301 98H302Q344 98 371 120T399 175Q399 253 287 276Q246 269 224 245T201 186Q200 151 228 125T301 98ZM297 554H296Q256 554 233 533T210 481Q210 421 311 395Q341 401 362 423T384 475Q384 507 362 530T297 554Z" />
<glyph unicode="9" glyph-name="nine" horiz-adv-x="598" d="M95 -9V112Q111 109 163 111Q252 114 309 151Q380 196 397 268L395 269Q346 220 251 220Q158 220 95 276T32 426Q32 525 107 593T295 662Q424 662 492 581T561 378Q561 185 445 83Q342 -7 166 -10Q127
-13 95 -9ZM291 545H290Q247 545 219 514T191 435Q191 392 218 363T294 334Q361 334 390 379Q398 392 398 407Q399 463 373 504T291 545Z" />
<glyph unicode=":" glyph-name="colon" horiz-adv-x="269" d="M144 310H143Q101 310 76 336T50 404T76 471T144 498T211 472T238 404Q238 363 212 337T144 310ZM144 -12H143Q101 -12 76 14T50 82T76 149T144 176T211 150T238 82Q238 41 212 15T144 -12Z" />
<glyph unicode=";" glyph-name="semicolon" horiz-adv-x="269" d="M106 -108L-1 -117Q51 26 74 173L235 183Q184 20 106 -108ZM150 310H149Q107 310 82 336T56 404T82 471T150 498T217 472T244 404Q244 363 218 337T150 310Z" />
<glyph unicode="&lt;" glyph-name="less" horiz-adv-x="596" d="M58 219V313L539 532V424L171 267V265L539 108V0L58 219Z" />
<glyph unicode="=" glyph-name="equal" horiz-adv-x="596" d="M556 326H40V423H556V326ZM556 112H40V209H556V112Z" />
<glyph unicode="&gt;" glyph-name="greater" horiz-adv-x="596" d="M538 313V219L57 0V108L425 265V267L57 424V532L538 313Z" />
<glyph unicode="?" glyph-name="question" horiz-adv-x="483" d="M295 222H155L154 249Q151 332 214 402Q236 426 247 439T268 470T278 504Q278 560 203 563Q141 563 92 529L54 641Q133 686 238 686Q334 686 386 642T438 529Q438 501 431 477T407 430T380 397T348
364Q293 307 295 238V222ZM220 -12H219Q177 -12 152 14T126 82T152 149T220 176T288 150T315 82Q315 41 289 15T220 -12Z" />
<glyph unicode="@" glyph-name="at" horiz-adv-x="820" d="M474 256L486 339Q468 343 454 343Q401 343 366 305T330 213Q330 149 384 149Q414 149 441 180T474 256ZM562 -9L581 -72Q499 -106 390 -106Q251 -106 154 -17T57 214Q57 372 166 482T448 592Q586 592
679 509T772 293Q772 191 715 128T572 64Q536 64 512 83T482 139H480Q429 64 344 64Q292 64 258 100T223 199Q223 293 291 360T467 428Q546 428 594 403L566 216Q553 136 590 135Q627 133 659 175T691 293Q691 395 624 460T438 525Q313 525 227 444T141 227Q141
104 216 33T412 -39Q499 -39 562 -9Z" />
<glyph unicode="A" glyph-name="A" horiz-adv-x="722" d="M460 180H242L189 0H21L246 674H460L696 0H520L460 180ZM267 297H434L385 441Q372 479 348 563H346Q341 547 331 505T313 441L267 297Z" />
<glyph unicode="B" glyph-name="B" horiz-adv-x="644" d="M69 3V665Q155 680 282 680Q421 680 491 645Q581 604 581 509Q581 463 552 425T466 367V365Q527 349 566 306T605 198Q605 109 528 51Q446 -8 248 -8Q148 -8 69 3ZM227 560V410H284Q351 410 385 431T420
490Q420 565 302 565Q250 565 227 560ZM227 297V112Q244 109 295 109Q357 109 396 132T436 205Q436 297 287 297H227Z" />
<glyph unicode="C" glyph-name="C" horiz-adv-x="662" d="M595 144L621 21Q555 -12 425 -12Q241 -12 140 82T38 327Q38 490 151 588T438 686Q563 686 629 652L595 528Q527 557 445 557Q339 557 273 500T206 337Q206 239 269 179T446 118Q534 118 595 144Z" />
<glyph unicode="D" glyph-name="D" horiz-adv-x="765" d="M69 3V665Q165 680 298 680Q498 680 605 604Q727 518 727 356Q727 183 610 87Q495 -8 263 -8Q144 -8 69 3ZM228 552V118Q243 115 291 115Q416 113 487 174T558 348Q558 451 493 505T312 559Q263 559 228 552Z" />
<glyph unicode="E" glyph-name="E" horiz-adv-x="580" d="M507 410V281H228V129H540V0H69V674H524V545H228V410H507Z" />
<glyph unicode="F" glyph-name="F" horiz-adv-x="572" d="M69 0V674H520V545H228V397H501V268H228V0H69Z" />
<glyph unicode="G" glyph-name="G" horiz-adv-x="752" d="M695 390V36Q568 -7 442 -7Q240 -7 136 91Q38 184 38 329Q38 490 153 585T456 681Q593 681 669 644L634 519Q555 552 451 552Q343 552 275 497T206 342T272 182T448 120Q513 120 539 131V267H420V390H695Z" />
<glyph unicode="H" glyph-name="H" horiz-adv-x="746" d="M69 674H228V417H518V674H677V0H518V281H228V0H69V674Z" />
<glyph unicode="I" glyph-name="I" horiz-adv-x="298" d="M69 674H228V0H69V674Z" />
<glyph unicode="J" glyph-name="J" horiz-adv-x="449" d="M226 263V674H385V258Q385 118 321 53T129 -12Q54 -12 2 6L21 133Q63 119 111 119Q168 119 197 151T226 263Z" />
<glyph unicode="K" glyph-name="K" horiz-adv-x="666" d="M69 0V674H227V378H229Q244 400 280 447L454 674H655L408 389L670 0H482L293 294L227 219V0H69Z" />
<glyph unicode="L" glyph-name="L" horiz-adv-x="555" d="M69 0V674H228V133H528V0H69Z" />
<glyph unicode="M" glyph-name="M" horiz-adv-x="916" d="M702 0L692 265Q686 439 686 561H683Q646 427 597 281L506 11H380L301 279Q262 421 234 561H232Q230 517 227 414T221 263L208 0H57L98 674H323L393 455Q429 333 453 212H457Q503 385 528 457L606 674H825L860
0H702Z" />
<glyph unicode="N" glyph-name="N" horiz-adv-x="749" d="M217 0H69V674H265L417 433Q486 319 540 190H543Q531 295 531 462V674H679V0H506L348 261Q260 410 215 511H211Q217 395 217 220V0Z" />
<glyph unicode="O" glyph-name="O" horiz-adv-x="796" d="M391 -12H390Q231 -12 135 85T38 330Q38 486 139 586T401 686Q564 686 661 590T758 342Q758 184 657 86T391 -12ZM397 112H398Q486 112 537 175T589 337Q589 432 537 497T398 562Q310 562 259 498T207
335Q207 239 259 176T397 112Z" />
<glyph unicode="P" glyph-name="P" horiz-adv-x="622" d="M69 0V665Q163 680 298 680Q438 680 512 625Q588 568 588 466Q588 362 525 308Q444 234 287 234Q252 234 227 239V0H69ZM227 556V360Q246 355 287 355Q353 355 391 383T430 464Q430 511 396 536T299 561Q247
561 227 556Z" />
<glyph unicode="Q" glyph-name="Q" horiz-adv-x="796" d="M752 7L709 -117Q565 -78 412 -21Q394 -14 360 -12Q228 -1 133 87T38 329Q38 487 139 586T403 686Q565 686 661 589T758 344Q758 238 707 158T579 45V41Q645 24 752 7ZM397 112H398Q486 112 537 175T589
337Q589 432 538 497T399 562Q311 562 259 497T207 334Q207 238 259 175T397 112Z" />
<glyph unicode="R" glyph-name="R" horiz-adv-x="634" d="M69 0V665Q166 680 292 680Q450 680 523 626Q588 577 588 484Q588 422 550 378T464 319V315Q525 290 557 193Q565 166 578 118T600 41T615 0H452Q432 36 402 156Q387 218 361 240T281 263H227V0H69ZM227
558V376H299Q360 376 395 401T430 471Q430 517 398 540T308 563Q257 563 227 558Z" />
<glyph unicode="S" glyph-name="S" horiz-adv-x="589" d="M46 35L81 165Q169 117 269 117Q323 117 352 136T381 189Q381 218 353 239T259 279Q162 307 108 355T54 482Q54 571 128 628T323 686Q436 686 517 649L479 523Q401 558 320 558Q270 558 244 540T217 494Q217
464 246 446T353 403Q452 372 498 324T545 198Q545 109 473 49T256 -12Q197 -12 139 2T46 35Z" />
<glyph unicode="T" glyph-name="T" horiz-adv-x="599" d="M219 0V544H16V674H584V544H378V0H219Z" />
<glyph unicode="U" glyph-name="U" horiz-adv-x="742" d="M69 674H228V303Q228 211 264 162T370 112Q441 112 477 160T514 303V674H673V308Q673 148 592 68T363 -12Q69 -12 69 311V674Z" />
<glyph unicode="V" glyph-name="V" horiz-adv-x="698" d="M438 0H250L12 674H186L279 391Q326 246 349 148H351Q372 239 422 386L521 674H689L438 0Z" />
<glyph unicode="W" glyph-name="W" horiz-adv-x="957" d="M370 0H191L16 674H188L246 394L290 158H292Q305 239 338 396L399 674H579L636 383Q658 264 673 163H675Q688 245 719 396L781 674H945L753 0H578L515 314Q491 428 482 516H480Q463 403 441 313L370 0Z" />
<glyph unicode="X" glyph-name="X" horiz-adv-x="681" d="M659 0H469L402 121L335 243H333Q322 216 273 123L211 0H23L241 340L31 674H219L284 552Q306 510 341 439H344Q365 488 396 551L460 674H648L437 347L659 0Z" />
<glyph unicode="Y" glyph-name="Y" horiz-adv-x="670" d="M410 0H251V282L17 674H203L279 511Q336 388 336 387H338Q344 400 395 510L472 674H656L410 288V0Z" />
<glyph unicode="Z" glyph-name="Z" horiz-adv-x="640" d="M28 0V84L384 540V544H61V674H598V589L248 134V130H605V0H28Z" />
<glyph unicode="[" glyph-name="bracketleft" horiz-adv-x="333" d="M285 -112H74V686H285V602H187V-28H285V-112Z" />
<glyph unicode="\" glyph-name="backslash" horiz-adv-x="363" d="M334 -40H228L21 686H127L334 -40Z" />
<glyph unicode="]" glyph-name="bracketright" horiz-adv-x="333" d="M48 686H259V-112H48V-28H146V602H48V686Z" />
<glyph unicode="^" glyph-name="asciicircum" horiz-adv-x="596" d="M555 177H443L299 531H297L152 177H42L251 650H346L555 177Z" />
<glyph unicode="_" glyph-name="underscore" horiz-adv-x="500" d="M0 -75H500V-125H0V-75Z" />
<glyph unicode="`" glyph-name="grave" horiz-adv-x="300" d="M-4 706H145L237 550H126L-4 706Z" />
<glyph unicode="a" glyph-name="a" horiz-adv-x="564" d="M500 288V121Q500 42 508 0H364L355 49H351Q299 -12 200 -12Q124 -12 79 33T33 138Q33 232 113 280T341 328V333Q341 343 338 352T325 371T295 387T244 394Q164 394 98 355L69 455Q148 501 271 501Q390
501 445 443T500 288ZM346 186V229Q191 231 191 154Q191 127 208 113T256 98T310 116T343 159Q346 171 346 186Z" />
<glyph unicode="b" glyph-name="b" horiz-adv-x="648" d="M66 147V716H225V428H227Q278 501 390 501Q487 501 551 433T614 252Q614 127 540 58T368 -12Q255 -12 205 72H203L197 0H62Q66 58 66 147ZM225 269V218Q225 201 227 193Q235 160 264 136T332 112Q386 112
418 147T451 246Q451 304 420 342T332 381Q295 381 265 358T227 296Q225 280 225 269Z" />
<glyph unicode="c" glyph-name="c" horiz-adv-x="493" d="M444 129L465 14Q410 -12 311 -12Q184 -12 109 57T34 240Q34 351 112 426T332 501Q406 501 463 480L437 363Q399 381 340 381Q276 381 237 344T198 247Q198 182 240 147T344 111Q401 111 444 129Z" />
<glyph unicode="d" glyph-name="d" horiz-adv-x="645" d="M420 716H579V147Q579 58 583 0H441L434 77H432Q407 33 362 11T262 -12Q168 -12 101 57T34 239Q33 357 103 429T274 501Q377 501 418 444H420V716ZM420 232V275Q420 294 418 302Q410 336 383 359T316 382Q259
382 228 344T197 246Q197 186 229 150T315 114Q353 114 381 138T417 197Q420 208 420 232Z" />
<glyph unicode="e" glyph-name="e" horiz-adv-x="564" d="M528 195H186Q190 153 232 130T335 106Q419 106 484 128L505 22Q422 -12 313 -12Q182 -12 108 56T34 240Q34 284 49 328T95 411T178 476T298 501Q361 501 409 479T483 418T521 339T534 252Q534 215 528
195ZM184 303H385Q385 316 381 330T368 360T338 387T290 398Q241 398 215 369T184 303Z" />
<glyph unicode="f" glyph-name="f" horiz-adv-x="360" d="M241 0H82V370H18V489H82V507Q82 555 98 602T147 678Q202 728 288 728Q332 728 370 718L366 596Q341 603 314 603Q277 603 258 579T239 515V489H342V370H241V0Z" />
<glyph unicode="g" glyph-name="g" horiz-adv-x="630" d="M564 347V77Q564 -82 485 -150Q411 -212 273 -212Q152 -212 79 -170L112 -50Q179 -92 269 -92Q330 -92 369 -60T408 41V73H406Q354 5 259 5Q163 5 99 70T34 244Q34 358 104 429T275 501Q376 501 424 428H426L430
489H568Q564 435 564 347ZM405 231V283Q405 293 403 309Q394 344 369 364T308 385Q261 385 229 349T197 247Q197 194 226 157T308 120Q342 120 367 140T401 190Q405 206 405 231Z" />
<glyph unicode="h" glyph-name="h" horiz-adv-x="628" d="M66 0V716H225V428H227Q252 462 293 481Q330 501 376 501Q457 501 510 447T563 282V0H404V259Q404 374 315 374Q254 374 230 318Q225 308 225 286V0H66Z" />
<glyph unicode="i" glyph-name="i" horiz-adv-x="291" d="M225 0H66V489H225V0ZM146 550H145Q107 550 84 572T61 627Q61 661 84 683T146 705T207 683T231 627Q231 594 208 572T146 550Z" />
<glyph unicode="j" glyph-name="j" horiz-adv-x="314" d="M-23 -220L-39 -96Q30 -91 59 -62Q92 -28 92 107V489H251V66Q251 -87 181 -154Q112 -220 -23 -220ZM171 550H170Q132 550 109 572T86 627Q86 661 109 683T171 705T232 683T256 627Q256 594 233 572T171 550Z" />
<glyph unicode="k" glyph-name="k" horiz-adv-x="586" d="M225 716V285H227L266 341L377 489H573L379 293L604 0H404L269 201L225 150V0H66V716H225Z" />
<glyph unicode="l" glyph-name="l" horiz-adv-x="291" d="M66 0V716H225V0H66Z" />
<glyph unicode="m" glyph-name="m" horiz-adv-x="920" d="M66 0V330Q66 403 62 489H196L202 420H206Q259 501 364 501Q413 501 451 477T507 412H509Q537 451 577 475Q621 501 678 501Q756 501 806 446T856 280V0H702V258Q702 374 621 374Q593 374 573 358T544
318Q538 300 538 278V0H384V263Q384 316 364 345T305 374Q249 374 226 316Q220 300 220 277V0H66Z" />
<glyph unicode="n" glyph-name="n" horiz-adv-x="628" d="M66 0V330Q66 403 62 489H200L207 418H211Q230 448 271 474T373 501Q456 501 509 447T563 282V0H404V259Q404 374 317 374Q284 374 262 356T230 312Q225 301 225 277V0H66Z" />
<glyph unicode="o" glyph-name="o" horiz-adv-x="625" d="M310 -12H309Q192 -12 113 56T34 240Q34 356 111 428T320 501Q440 501 515 431T591 250Q591 128 510 58T310 -12ZM313 100H314Q364 100 394 138T425 245Q425 306 397 347T314 389Q257 389 229 347T200
244Q200 181 230 141T313 100Z" />
<glyph unicode="p" glyph-name="p" horiz-adv-x="648" d="M66 -200V322Q66 397 62 489H200L207 417H209Q273 501 393 501Q480 501 547 435T614 253Q614 127 541 58T370 -12Q322 -12 284 4T227 47H225V-200H66ZM225 266V220Q225 201 227 191Q235 157 264 133T332
108Q386 108 418 144T451 244Q451 302 421 340T334 379Q296 379 266 354T228 291Q225 277 225 266Z" />
<glyph unicode="q" glyph-name="q" horiz-adv-x="645" d="M420 -200V68H418Q366 -12 256 -12Q167 -12 101 55T34 239Q34 364 105 432T268 501Q372 501 419 430H421L424 489H582L579 345V-200H420ZM420 223V275Q420 291 418 299Q411 332 383 356T316 380Q259 380
228 342T197 244Q197 184 228 148T314 112Q352 112 380 134T416 190Q420 203 420 223Z" />
<glyph unicode="r" glyph-name="r" horiz-adv-x="408" d="M66 0V323Q66 434 62 489H198L203 392H207Q225 446 266 473T351 501Q372 501 385 498V351Q363 356 339 356Q292 356 263 335T227 276Q225 267 225 247V0H66Z" />
<glyph unicode="s" glyph-name="s" horiz-adv-x="471" d="M37 25L66 138Q91 123 133 111T210 98Q281 98 281 137Q281 156 265 167T203 190Q125 212 88 251T51 338Q51 409 109 455T263 501Q351 501 413 471L386 363Q328 393 267 393Q205 393 205 354Q205 336 224
325T293 300Q367 278 401 242T436 148Q436 78 379 33T211 -12Q113 -12 37 25Z" />
<glyph unicode="t" glyph-name="t" horiz-adv-x="386" d="M86 582L241 623V489H355V370H241V209Q241 161 254 140T304 118Q334 118 353 123L355 3Q316 -12 250 -12Q172 -12 128 34Q86 80 86 181V370H19V489H86V582Z" />
<glyph unicode="u" glyph-name="u" horiz-adv-x="627" d="M561 489V159Q561 78 565 0H427L420 75H417Q365 -12 250 -12Q168 -12 117 41T65 204V489H224V232Q224 115 310 115Q343 115 365 133T397 175Q402 186 402 204V489H561Z" />
<glyph unicode="v" glyph-name="v" horiz-adv-x="575" d="M11 489H185L260 259Q281 194 290 146H294Q306 204 324 259L395 489H565L366 0H204L11 489Z" />
<glyph unicode="w" glyph-name="w" horiz-adv-x="807" d="M13 489H173L217 292Q230 234 248 128H250Q259 180 289 291L343 489H470L521 298Q548 199 561 128H563Q571 195 595 300L640 489H795L638 0H485L436 172Q417 237 402 324H400Q387 242 367 173L316 0H163L13 489Z" />
<glyph unicode="x" glyph-name="x" horiz-adv-x="561" d="M7 489H186L240 409Q262 377 286 339H288Q314 387 331 412L378 489H555L377 259L557 0H374L320 87Q297 123 277 161H275L232 87L181 0H2L187 252L7 489Z" />
<glyph unicode="y" glyph-name="y" horiz-adv-x="567" d="M7 489H185L266 253Q270 240 280 206T294 159H297Q301 174 310 208T322 254L389 489H563L445 185Q384 24 341 -49T252 -159Q182 -215 94 -223L63 -90Q98 -85 130 -69Q172 -50 200 -7Q209 7 209 15Q209
27 201 43L7 489Z" />
<glyph unicode="z" glyph-name="z" horiz-adv-x="508" d="M23 0V89L188 273Q204 290 276 362V364H41V489H476V397L319 220Q265 161 228 127V125H485V0H23Z" />
<glyph unicode="{" glyph-name="braceleft" horiz-adv-x="333" d="M37 250V325Q71 326 90 339T112 365T116 397Q116 408 111 476Q105 530 105 555Q105 686 256 686H297V600H278Q215 600 215 528Q215 516 221 474Q226 424 226 402Q227 347 206 322T138 289V287Q184
278 205 253T226 172Q226 142 220 100Q215 47 215 46Q215 -27 278 -27H297V-112H256Q105 -112 105 22Q105 47 111 99Q116 169 116 177Q116 196 113 209T90 235T37 250Z" />
<glyph unicode="|" glyph-name="bar" horiz-adv-x="304" d="M98 750H207V-250H98V750Z" />
<glyph unicode="}" glyph-name="braceright" horiz-adv-x="333" d="M296 325V250Q262 249 243 236T221 209T217 177Q217 155 223 99Q228 34 228 22Q228 -112 77 -112H36V-27H55Q118 -27 118 46Q118 58 112 100Q107 153 107 172Q106 228 127 253T195 287V289Q149
297 128 322T107 402Q107 434 113 474Q118 526 118 528Q118 600 55 600H36V686H77Q228 686 228 555Q228 530 222 476Q217 409 217 397Q217 378 220 365T243 339T296 325Z" />
<glyph unicode="~" glyph-name="asciitilde" horiz-adv-x="596" d="M137 190H38Q37 382 179 382Q213 382 242 372T321 335Q392 296 419 296Q454 296 458 377H558Q566 183 421 183Q367 183 278 231Q208 271 184 271Q143 271 137 190Z" />
</font>
</defs>
</svg>
